# xmcd CD database file generated by Grip 3.2.0
# 
# Track frame offsets:
#       150
#       15628
#       36861
#       50398
#       66252
#       79245
#       96649
#       111114
#       129036
#       164430
#       193616
# 
# Disc length: 3745 seconds
# 
# Revision: 3
# Processed by: cddbd v1.5.2PL0 Copyright (c) Steve Scherf et al.
# Submitted via: Grip 3.2.0
# 
DISCID=900e9f0b
DTITLE=John Lee Hooker - That's where it's at!
DYEAR=1969
DGENRE=Blues
TTITLE0=teachin' the blues
TTITLE1=goin' to louisiana
TTITLE2=i need you
TTITLE3=my love comes down to you
TTITLE4=please don't go
TTITLE5=i just don't know
TTITLE6=slow and easy
TTITLE7=two white horses
TTITLE8=feel so bad
TTITLE9=grinder man
TTITLE10=multimedia-track incl.: video, biography and pictures
EXTD=
EXTT0=
EXTT1=
EXTT2=
EXTT3=
EXTT4=
EXTT5=
EXTT6=
EXTT7=
EXTT8=
EXTT9=
EXTT10=
PLAYORDER=
